<svg width="278" height="20" viewBox="0 0 278 20" fill="none" xmlns="http://www.w3.org/2000/svg">
<path d="M273.688 19.9375H271.875H270.062H268.25H266.438H264.625V18.125H262.812V16.3125V14.5H264.625H266.438V16.3125H268.25H270.062H271.875H273.688V14.5V12.6875H271.875V10.875H270.062H268.25H266.438H264.625V9.0625H262.812V7.25V5.4375V3.625V1.8125H264.625V0H266.438H268.25H270.062H271.875H273.688H275.5V1.8125H277.312V3.625V5.4375H275.5H273.688V3.625H271.875H270.062H268.25H266.438V5.4375V7.25H268.25H270.062H271.875H273.688V9.0625H275.5V10.875H277.312V12.6875V14.5V16.3125V18.125H275.5V19.9375H273.688Z" fill="#1E1E1E"/>
<path d="M259.188 19.9375H257.375V18.125V16.3125V14.5H255.562V12.6875H253.75V10.875H251.938V9.0625H250.125V10.875V12.6875V14.5V16.3125V18.125V19.9375H248.312H246.5V18.125V16.3125V14.5V12.6875V10.875V9.0625V7.25V5.4375V3.625V1.8125V0H248.312H250.125V1.8125V3.625H251.938V5.4375H253.75V7.25H255.562V9.0625H257.375V7.25V5.4375V3.625V1.8125V0H259.188H261V1.8125V3.625V5.4375V7.25V9.0625V10.875V12.6875V14.5V16.3125V18.125V19.9375H259.188Z" fill="#1E1E1E"/>
<path d="M241.062 19.9375H239.25H237.438H235.625H233.812H232V18.125H230.188V16.3125V14.5V12.6875V10.875V9.0625V7.25V5.4375V3.625V1.8125H232V0H233.812H235.625H237.438H239.25H241.062H242.875V1.8125H244.688V3.625V5.4375H242.875H241.062V3.625H239.25H237.438H235.625H233.812V5.4375V7.25V9.0625V10.875V12.6875V14.5V16.3125H235.625H237.438H239.25H241.062V14.5V12.6875H239.25H237.438V10.875V9.0625H239.25H241.062H242.875H244.688V10.875V12.6875V14.5V16.3125V18.125H242.875V19.9375H241.062Z" fill="#1E1E1E"/>
<path d="M226.562 19.9375H224.75H222.938H221.125V18.125V16.3125H222.938V14.5V12.6875V10.875V9.0625V7.25V5.4375V3.625H221.125V1.8125V0H222.938H224.75H226.562H228.375V1.8125V3.625H226.562V5.4375V7.25V9.0625V10.875V12.6875V14.5V16.3125H228.375V18.125V19.9375H226.562Z" fill="#1E1E1E"/>
<path d="M215.688 19.9375H213.875H212.062H210.25H208.438H206.625V18.125H204.812V16.3125V14.5H206.625H208.438V16.3125H210.25H212.062H213.875H215.688V14.5V12.6875H213.875V10.875H212.062H210.25H208.438H206.625V9.0625H204.812V7.25V5.4375V3.625V1.8125H206.625V0H208.438H210.25H212.062H213.875H215.688H217.5V1.8125H219.312V3.625V5.4375H217.5H215.688V3.625H213.875H212.062H210.25H208.438V5.4375V7.25H210.25H212.062H213.875H215.688V9.0625H217.5V10.875H219.312V12.6875V14.5V16.3125V18.125H217.5V19.9375H215.688Z" fill="#1E1E1E"/>
<path d="M201.188 19.9375H199.375H197.562H195.75H193.938H192.125H190.312H188.5V18.125V16.3125V14.5V12.6875V10.875V9.0625V7.25V5.4375V3.625V1.8125V0H190.312H192.125H193.938H195.75H197.562H199.375H201.188H203V1.8125V3.625H201.188H199.375H197.562H195.75H193.938H192.125V5.4375V7.25H193.938H195.75H197.562H199.375H201.188V9.0625V10.875H199.375H197.562H195.75H193.938H192.125V12.6875V14.5V16.3125H193.938H195.75H197.562H199.375H201.188H203V18.125V19.9375H201.188Z" fill="#1E1E1E"/>
<path d="M183.062 19.9375H181.25H179.438H177.625H175.812H174H172.188V18.125V16.3125V14.5V12.6875V10.875V9.0625V7.25V5.4375V3.625V1.8125V0H174H175.812H177.625H179.438H181.25H183.062H184.875V1.8125H186.688V3.625V5.4375V7.25V9.0625V10.875V12.6875V14.5V16.3125V18.125H184.875V19.9375H183.062ZM181.25 16.3125H183.062V14.5V12.6875V10.875V9.0625V7.25V5.4375V3.625H181.25H179.438H177.625H175.812V5.4375V7.25V9.0625V10.875V12.6875V14.5V16.3125H177.625H179.438H181.25Z" fill="#1E1E1E"/>
<path d="M166.75 19.9375H164.938H163.125H161.312H159.5H157.688V18.125H155.875V16.3125V14.5H157.688H159.5V16.3125H161.312H163.125H164.938H166.75V14.5V12.6875H164.938V10.875H163.125H161.312H159.5H157.688V9.0625H155.875V7.25V5.4375V3.625V1.8125H157.688V0H159.5H161.312H163.125H164.938H166.75H168.562V1.8125H170.375V3.625V5.4375H168.562H166.75V3.625H164.938H163.125H161.312H159.5V5.4375V7.25H161.312H163.125H164.938H166.75V9.0625H168.562V10.875H170.375V12.6875V14.5V16.3125V18.125H168.562V19.9375H166.75Z" fill="black" fill-opacity="0.3"/>
<path d="M152.25 19.9375H150.438V18.125V16.3125V14.5H148.625H146.812H145H143.188V16.3125V18.125V19.9375H141.375H139.562V18.125V16.3125V14.5V12.6875V10.875V9.0625V7.25V5.4375H141.375V3.625H143.188V1.8125H145V0H146.812H148.625V1.8125H150.438V3.625H152.25V5.4375H154.062V7.25V9.0625V10.875V12.6875V14.5V16.3125V18.125V19.9375H152.25ZM148.625 10.875H150.438V9.0625V7.25H148.625V5.4375H146.812H145V7.25H143.188V9.0625V10.875H145H146.812H148.625Z" fill="black" fill-opacity="0.3"/>
<path d="M135.938 19.9375H134.125V18.125V16.3125V14.5V12.6875V10.875V9.0625H132.312V10.875H130.5H128.688V9.0625H126.875V10.875V12.6875V14.5V16.3125V18.125V19.9375H125.062H123.25V18.125V16.3125V14.5V12.6875V10.875V9.0625V7.25V5.4375V3.625V1.8125V0H125.062H126.875V1.8125V3.625H128.688V5.4375H130.5H132.312V3.625H134.125V1.8125V0H135.938H137.75V1.8125V3.625V5.4375V7.25V9.0625V10.875V12.6875V14.5V16.3125V18.125V19.9375H135.938Z" fill="black" fill-opacity="0.3"/>
<path d="M117.812 19.9375H116H114.188H112.375H110.562H108.75V18.125H106.938V16.3125V14.5V12.6875V10.875V9.0625V7.25V5.4375V3.625V1.8125H108.75V0H110.562H112.375H114.188H116H117.812H119.625V1.8125H121.438V3.625V5.4375V7.25V9.0625V10.875V12.6875V14.5V16.3125V18.125H119.625V19.9375H117.812ZM116 16.3125H117.812V14.5V12.6875V10.875V9.0625V7.25V5.4375V3.625H116H114.188H112.375H110.562V5.4375V7.25V9.0625V10.875V12.6875V14.5V16.3125H112.375H114.188H116Z" fill="black" fill-opacity="0.3"/>
<path d="M103.312 19.9375H101.5V18.125V16.3125V14.5V12.6875V10.875H99.6875H97.875H96.0625H94.25V12.6875V14.5V16.3125V18.125V19.9375H92.4375H90.625V18.125V16.3125V14.5V12.6875V10.875V9.0625V7.25V5.4375V3.625V1.8125V0H92.4375H94.25V1.8125V3.625V5.4375V7.25H96.0625H97.875H99.6875H101.5V5.4375V3.625V1.8125V0H103.312H105.125V1.8125V3.625V5.4375V7.25V9.0625V10.875V12.6875V14.5V16.3125V18.125V19.9375H103.312Z" fill="black" fill-opacity="0.3"/>
<path d="M81.5625 19.9375H79.75V18.125V16.3125V14.5V12.6875V10.875V9.0625V7.25V5.4375V3.625H77.9375H76.125H74.3125V1.8125V0H76.125H77.9375H79.75H81.5625H83.375H85.1875H87H88.8125V1.8125V3.625H87H85.1875H83.375V5.4375V7.25V9.0625V10.875V12.6875V14.5V16.3125V18.125V19.9375H81.5625Z" fill="black" fill-opacity="0.3"/>
<path d="M68.875 19.9375H67.0625H65.25H63.4375H61.625H59.8125V18.125H58V16.3125V14.5H59.8125H61.625V16.3125H63.4375H65.25H67.0625H68.875V14.5V12.6875H67.0625V10.875H65.25H63.4375H61.625H59.8125V9.0625H58V7.25V5.4375V3.625V1.8125H59.8125V0H61.625H63.4375H65.25H67.0625H68.875H70.6875V1.8125H72.5V3.625V5.4375H70.6875H68.875V3.625H67.0625H65.25H63.4375H61.625V5.4375V7.25H63.4375H65.25H67.0625H68.875V9.0625H70.6875V10.875H72.5V12.6875V14.5V16.3125V18.125H70.6875V19.9375H68.875Z" fill="#1E1E1E"/>
<path d="M54.375 19.9375H52.5625H50.75H48.9375V18.125V16.3125H50.75V14.5V12.6875V10.875V9.0625V7.25V5.4375V3.625H48.9375V1.8125V0H50.75H52.5625H54.375H56.1875V1.8125V3.625H54.375V5.4375V7.25V9.0625V10.875V12.6875V14.5V16.3125H56.1875V18.125V19.9375H54.375Z" fill="#1E1E1E"/>
<path d="M45.3125 19.9375H43.5V18.125H41.6875V16.3125H39.875V14.5H38.0625V12.6875H36.25V14.5V16.3125V18.125V19.9375H34.4375H32.625V18.125V16.3125V14.5V12.6875V10.875V9.0625V7.25V5.4375V3.625V1.8125V0H34.4375H36.25H38.0625H39.875H41.6875H43.5H45.3125V1.8125H47.125V3.625V5.4375V7.25V9.0625H45.3125V10.875H43.5H41.6875V12.6875H43.5V14.5H45.3125V16.3125H47.125V18.125V19.9375H45.3125ZM41.6875 7.25H43.5V5.4375V3.625H41.6875H39.875H38.0625H36.25V5.4375V7.25H38.0625H39.875H41.6875Z" fill="#1E1E1E"/>
<path d="M29 19.9375H27.1875V18.125V16.3125V14.5V12.6875V10.875H25.375H23.5625H21.75H19.9375V12.6875V14.5V16.3125V18.125V19.9375H18.125H16.3125V18.125V16.3125V14.5V12.6875V10.875V9.0625V7.25V5.4375V3.625V1.8125V0H18.125H19.9375V1.8125V3.625V5.4375V7.25H21.75H23.5625H25.375H27.1875V5.4375V3.625V1.8125V0H29H30.8125V1.8125V3.625V5.4375V7.25V9.0625V10.875V12.6875V14.5V16.3125V18.125V19.9375H29Z" fill="#1E1E1E"/>
<path d="M10.875 19.9375H9.0625H7.25H5.4375H3.625H1.8125V18.125H0V16.3125V14.5V12.6875V10.875V9.0625V7.25V5.4375V3.625V1.8125H1.8125V0H3.625H5.4375H7.25H9.0625H10.875H12.6875V1.8125H14.5V3.625V5.4375H12.6875H10.875V3.625H9.0625H7.25H5.4375H3.625V5.4375V7.25V9.0625V10.875V12.6875V14.5V16.3125H5.4375H7.25H9.0625H10.875V14.5H12.6875H14.5V16.3125V18.125H12.6875V19.9375H10.875Z" fill="#1E1E1E"/>
</svg>
