<svg width="240" height="15" viewBox="0 0 240 15" fill="none" xmlns="http://www.w3.org/2000/svg">
<path d="M144.165 15C143.353 15 142.575 14.8726 141.831 14.6178C141.087 14.3561 140.436 13.9842 139.878 13.5021C139.321 13.0131 138.918 12.4311 138.67 11.7562L141.583 10.6818C141.652 10.8815 141.803 11.0744 142.037 11.2603C142.278 11.4463 142.581 11.6012 142.946 11.7252C143.311 11.8423 143.718 11.9008 144.165 11.9008C144.579 11.9008 144.968 11.8423 145.333 11.7252C145.698 11.6012 145.994 11.4325 146.221 11.219C146.448 11.0055 146.562 10.7576 146.562 10.4752C146.562 10.186 146.441 9.94835 146.2 9.7624C145.966 9.56956 145.663 9.41804 145.291 9.30785C144.926 9.19077 144.551 9.10468 144.165 9.04959C143.119 8.89807 142.179 8.65014 141.345 8.30579C140.519 7.95455 139.865 7.47245 139.383 6.8595C138.907 6.24656 138.67 5.46832 138.67 4.5248C138.67 3.62259 138.925 2.83402 139.434 2.15909C139.944 1.47727 140.615 0.94697 141.449 0.568182C142.289 0.189394 143.194 0 144.165 0C144.978 0 145.756 0.130854 146.5 0.392563C147.25 0.647384 147.905 1.01928 148.462 1.50826C149.02 1.99724 149.42 2.58264 149.661 3.26446L146.748 4.31818C146.679 4.11846 146.524 3.92906 146.283 3.75C146.049 3.56405 145.749 3.41254 145.384 3.29546C145.019 3.17838 144.613 3.11983 144.165 3.11983C143.766 3.11295 143.384 3.17149 143.019 3.29546C142.654 3.41942 142.354 3.58815 142.12 3.80165C141.886 4.01515 141.769 4.2562 141.769 4.5248C141.769 4.8967 141.879 5.17562 142.099 5.36157C142.32 5.54063 142.609 5.66804 142.967 5.7438C143.332 5.81956 143.731 5.88843 144.165 5.95042C145.157 6.09504 146.069 6.35331 146.903 6.72521C147.736 7.09711 148.404 7.59298 148.907 8.21281C149.409 8.83265 149.661 9.58678 149.661 10.4752C149.661 11.3774 149.406 12.1694 148.896 12.8512C148.394 13.5262 147.726 14.053 146.892 14.4318C146.059 14.8106 145.15 15 144.165 15Z" fill="#2F2716"/>
<path d="M129.306 0.268555H132.798L138.045 14.7314H134.76L133.934 12.4586H128.17L127.343 14.7314H124.059L129.306 0.268555ZM129.306 9.35946H132.798L131.041 4.56608L129.306 9.35946Z" fill="#2F2716"/>
<path d="M105.828 14.7314L108.638 0.268555H111.282L114.526 8.80161L117.769 0.268555H120.414L123.223 14.7314H120.062L118.554 6.92145L115.6 14.7314H113.451L110.497 6.92145L108.989 14.7314H105.828Z" fill="#2F2716"/>
<path d="M97.5728 15C96.5949 15 95.6756 14.8072 94.8148 14.4215C93.954 14.0289 93.1965 13.4883 92.5422 12.7996C91.888 12.1109 91.375 11.3154 91.0031 10.4132C90.6312 9.50413 90.4453 8.53306 90.4453 7.5C90.4453 6.46694 90.6312 5.49931 91.0031 4.59711C91.375 3.68802 91.888 2.88912 92.5422 2.20041C93.1965 1.51171 93.954 0.974519 94.8148 0.588845C95.6756 0.196282 96.5949 0 97.5728 0C98.5576 0 99.4804 0.196282 100.341 0.588845C101.202 0.974519 101.96 1.51171 102.614 2.20041C103.268 2.88912 103.778 3.68802 104.143 4.59711C104.514 5.49931 104.7 6.46694 104.7 7.5C104.7 8.53306 104.514 9.50413 104.143 10.4132C103.778 11.3154 103.268 12.1109 102.614 12.7996C101.96 13.4883 101.202 14.0289 100.341 14.4215C99.4804 14.8072 98.5576 15 97.5728 15ZM97.5728 11.9008C98.1237 11.9008 98.6402 11.7872 99.1223 11.5599C99.6112 11.3258 100.042 11.009 100.413 10.6095C100.785 10.2032 101.075 9.73485 101.281 9.20455C101.495 8.67424 101.601 8.10606 101.601 7.5C101.601 6.89394 101.495 6.32576 101.281 5.79546C101.075 5.26515 100.785 4.80028 100.413 4.40083C100.042 3.99449 99.6112 3.67769 99.1223 3.45041C98.6402 3.21625 98.1237 3.09918 97.5728 3.09918C97.0219 3.09918 96.502 3.21625 96.013 3.45041C95.531 3.67769 95.104 3.99449 94.7321 4.40083C94.3603 4.80028 94.0676 5.26515 93.8541 5.79546C93.6475 6.32576 93.5442 6.89394 93.5442 7.5C93.5442 8.10606 93.6475 8.67424 93.8541 9.20455C94.0676 9.73485 94.3603 10.2032 94.7321 10.6095C95.104 11.009 95.531 11.3258 96.013 11.5599C96.502 11.7872 97.0219 11.9008 97.5728 11.9008Z" fill="#2F2716"/>
<path d="M85.2811 0.268555H88.38V14.7314H85.2811V8.53302H80.1575V14.7314H77.0586V0.268555H80.1575V5.43384H85.2811V0.268555Z" fill="#2F2716"/>
<path d="M74.9955 0.268555V3.36773H70.8636V14.7314H67.7647V3.36773H63.6328V0.268555H74.9955Z" fill="#2F2716"/>
<path d="M52.6087 15C51.7961 15 51.0179 14.8726 50.2742 14.6178C49.5304 14.3561 48.8797 13.9842 48.3219 13.5021C47.7641 13.0131 47.3612 12.4311 47.1133 11.7562L50.0263 10.6818C50.0951 10.8815 50.2466 11.0744 50.4808 11.2603C50.7218 11.4463 51.0248 11.6012 51.3898 11.7252C51.7548 11.8423 52.1611 11.9008 52.6087 11.9008C53.0219 11.9008 53.411 11.8423 53.7759 11.7252C54.1409 11.6012 54.437 11.4325 54.6643 11.219C54.8916 11.0055 55.0052 10.7576 55.0052 10.4752C55.0052 10.186 54.8847 9.94835 54.6436 9.7624C54.4095 9.56956 54.1065 9.41804 53.7346 9.30785C53.3696 9.19077 52.9943 9.10468 52.6087 9.04959C51.5619 8.89807 50.6219 8.65014 49.7887 8.30579C48.9623 7.95455 48.3081 7.47245 47.826 6.8595C47.3509 6.24656 47.1133 5.46832 47.1133 4.5248C47.1133 3.62259 47.3681 2.83402 47.8777 2.15909C48.3873 1.47727 49.0587 0.94697 49.892 0.568182C50.7321 0.189394 51.6377 0 52.6087 0C53.4213 0 54.1995 0.130854 54.9432 0.392563C55.6938 0.647384 56.3481 1.01928 56.9059 1.50826C57.4637 1.99724 57.8631 2.58264 58.1041 3.26446L55.1911 4.31818C55.1223 4.11846 54.9673 3.92906 54.7263 3.75C54.4921 3.56405 54.1926 3.41254 53.8276 3.29546C53.4626 3.17838 53.0563 3.11983 52.6087 3.11983C52.2093 3.11295 51.8271 3.17149 51.4621 3.29546C51.0971 3.41942 50.7975 3.58815 50.5634 3.80165C50.3293 4.01515 50.2122 4.2562 50.2122 4.5248C50.2122 4.8967 50.3224 5.17562 50.5427 5.36157C50.7631 5.54063 51.0523 5.66804 51.4104 5.7438C51.7754 5.81956 52.1748 5.88843 52.6087 5.95042C53.6003 6.09504 54.5128 6.35331 55.3461 6.72521C56.1793 7.09711 56.8473 7.59298 57.35 8.21281C57.8527 8.83265 58.1041 9.58678 58.1041 10.4752C58.1041 11.3774 57.8493 12.1694 57.3397 12.8512C56.837 13.5262 56.169 14.053 55.3357 14.4318C54.5025 14.8106 53.5935 15 52.6087 15Z" fill="#2F2716"/>
<path d="M41.4336 14.7314V0.268555H44.5328V14.7314H41.4336Z" fill="#2F2716"/>
<path d="M28.457 14.7314V0.268555H34.345C35.1369 0.268555 35.8531 0.468279 36.4935 0.867729C37.134 1.26718 37.6401 1.80437 38.012 2.4793C38.3908 3.14734 38.5802 3.88426 38.5802 4.69004C38.5802 5.30988 38.4769 5.88839 38.2703 6.42558C38.0637 6.95588 37.7675 7.42765 37.3819 7.84087C37.0031 8.2472 36.5555 8.57434 36.039 8.82227L39.4685 14.7314H35.8944L32.6302 9.11153H31.5559V14.7314H28.457ZM31.5559 6.01236H33.9731C34.2486 6.01236 34.4999 5.94349 34.7272 5.80574C34.9544 5.66112 35.1369 5.47172 35.2746 5.23756C35.4124 5.0034 35.4812 4.74514 35.4812 4.46277C35.4812 4.1804 35.4124 3.92214 35.2746 3.68798C35.1369 3.45382 34.9544 3.26787 34.7272 3.13012C34.4999 2.9855 34.2486 2.91318 33.9731 2.91318H31.5559V6.01236Z" fill="#2F2716"/>
<path d="M22.8787 0.268555H25.9776V14.7314H22.8787V8.53302H17.7552V14.7314H14.6562V0.268555H17.7552V5.43384H22.8787V0.268555Z" fill="#2F2716"/>
<path d="M7.10684 15C6.12896 15 5.20962 14.8072 4.34881 14.4215C3.488 14.0289 2.73049 13.4883 2.07627 12.7996C1.42894 12.1109 0.919345 11.3154 0.547475 10.4132C0.182492 9.50413 0 8.53306 0 7.5C0 6.46006 0.182492 5.48898 0.547475 4.58678C0.919345 3.67769 1.42894 2.88223 2.07627 2.20041C2.73049 1.51171 3.488 0.974519 4.34881 0.588845C5.20962 0.196282 6.12896 0 7.10684 0C8.27755 0 9.35528 0.272039 10.34 0.816116C11.3248 1.35331 12.1409 2.073 12.7882 2.97521L10.0198 4.46281C9.66173 4.04959 9.23132 3.71901 8.72861 3.47107C8.2259 3.22314 7.68531 3.09918 7.10684 3.09918C6.55593 3.09918 6.036 3.21281 5.54706 3.44008C5.065 3.66736 4.63804 3.98416 4.26617 4.3905C3.90119 4.78995 3.6154 5.25482 3.40881 5.78512C3.20221 6.31543 3.09891 6.88705 3.09891 7.5C3.09891 8.10606 3.20221 8.67424 3.40881 9.20455C3.6154 9.73485 3.90119 10.2032 4.26617 10.6095C4.63804 11.009 5.065 11.3258 5.54706 11.5599C6.036 11.7872 6.55593 11.9008 7.10684 11.9008C7.68531 11.9008 8.2259 11.7769 8.72861 11.5289C9.23132 11.2741 9.66173 10.9366 10.0198 10.5165L12.7882 12.0248C12.1409 12.9201 11.3248 13.6398 10.34 14.1839C9.35528 14.728 8.27755 15 7.10684 15Z" fill="#2F2716"/>
<path d="M215.289 14.7314V0.268555H218.636L223.925 9.13219V0.268555H227.024V14.7314H223.677L218.388 5.86773V14.7314H215.289Z" fill="#BBB3A9"/>
<path d="M206.408 14.9998C205.395 14.9998 204.455 14.8036 203.588 14.411C202.727 14.0184 201.976 13.4778 201.336 12.7891C200.695 12.0935 200.196 11.2912 199.838 10.3821C199.48 9.47299 199.301 8.50535 199.301 7.47918C199.301 6.37037 199.497 5.36142 199.89 4.45232C200.289 3.54323 200.826 2.75811 201.501 2.09695C202.183 1.42891 202.951 0.915823 203.805 0.557696C204.665 0.19957 205.554 0.0205078 206.47 0.0205078C207.475 0.0205078 208.467 0.254669 209.445 0.722988C210.422 1.19131 211.304 1.94888 212.089 2.99571L209.321 4.48332C208.901 4.00811 208.439 3.66032 207.936 3.43993C207.441 3.21266 206.938 3.09902 206.428 3.09902C205.912 3.09902 205.413 3.20577 204.93 3.41927C204.448 3.63277 204.018 3.9358 203.639 4.32836C203.261 4.72092 202.958 5.18924 202.73 5.73332C202.51 6.27739 202.4 6.88001 202.4 7.54117C202.4 8.14723 202.503 8.71541 202.71 9.24571C202.923 9.77602 203.216 10.2409 203.588 10.6403C203.959 11.0329 204.39 11.3428 204.879 11.5701C205.368 11.7905 205.891 11.9007 206.449 11.9007C206.766 11.9007 207.079 11.8594 207.389 11.7767C207.706 11.6872 208.012 11.5563 208.308 11.3841C208.604 11.212 208.883 10.9916 209.145 10.723C209.407 10.4544 209.644 10.1376 209.858 9.77257H207.916V7.08662H213.514C213.57 8.16789 213.422 9.18717 213.07 10.1445C212.726 11.0949 212.227 11.9351 211.572 12.6651C210.918 13.3952 210.15 13.9668 209.269 14.38C208.387 14.7932 207.434 14.9998 206.408 14.9998Z" fill="#BBB3A9"/>
<path d="M193.83 14.7314V0.268555H196.929V14.7314H193.83Z" fill="#BBB3A9"/>
<path d="M185.757 15C184.945 15 184.166 14.8726 183.423 14.6178C182.679 14.3561 182.028 13.9842 181.47 13.5021C180.912 13.0131 180.51 12.4311 180.262 11.7562L183.175 10.6818C183.244 10.8815 183.395 11.0744 183.629 11.2603C183.87 11.4463 184.173 11.6012 184.538 11.7252C184.903 11.8423 185.31 11.9008 185.757 11.9008C186.17 11.9008 186.559 11.8423 186.924 11.7252C187.289 11.6012 187.585 11.4325 187.813 11.219C188.04 11.0055 188.154 10.7576 188.154 10.4752C188.154 10.186 188.033 9.94835 187.792 9.7624C187.558 9.56956 187.255 9.41804 186.883 9.30785C186.518 9.19077 186.143 9.10468 185.757 9.04959C184.71 8.89807 183.77 8.65014 182.937 8.30579C182.111 7.95455 181.457 7.47245 180.974 6.8595C180.499 6.24656 180.262 5.46832 180.262 4.5248C180.262 3.62259 180.517 2.83402 181.026 2.15909C181.536 1.47727 182.207 0.94697 183.04 0.568182C183.881 0.189394 184.786 0 185.757 0C186.57 0 187.348 0.130854 188.092 0.392563C188.842 0.647384 189.496 1.01928 190.054 1.50826C190.612 1.99724 191.012 2.58264 191.253 3.26446L188.34 4.31818C188.271 4.11846 188.116 3.92906 187.875 3.75C187.641 3.56405 187.341 3.41254 186.976 3.29546C186.611 3.17838 186.205 3.11983 185.757 3.11983C185.358 3.11295 184.976 3.17149 184.611 3.29546C184.246 3.41942 183.946 3.58815 183.712 3.80165C183.478 4.01515 183.361 4.2562 183.361 4.5248C183.361 4.8967 183.471 5.17562 183.691 5.36157C183.912 5.54063 184.201 5.66804 184.559 5.7438C184.924 5.81956 185.323 5.88843 185.757 5.95042C186.749 6.09504 187.661 6.35331 188.494 6.72521C189.328 7.09711 189.996 7.59298 190.498 8.21281C191.001 8.83265 191.253 9.58678 191.253 10.4752C191.253 11.3774 190.998 12.1694 190.488 12.8512C189.985 13.5262 189.317 14.053 188.484 14.4318C187.651 14.8106 186.742 15 185.757 15Z" fill="#BBB3A9"/>
<path d="M234.503 15C233.691 15 232.912 14.8726 232.169 14.6178C231.425 14.3561 230.774 13.9842 230.216 13.5021C229.659 13.0131 229.256 12.4311 229.008 11.7562L231.921 10.6818C231.99 10.8815 232.141 11.0744 232.375 11.2603C232.616 11.4463 232.919 11.6012 233.284 11.7252C233.649 11.8423 234.056 11.9008 234.503 11.9008C234.916 11.9008 235.305 11.8423 235.67 11.7252C236.035 11.6012 236.332 11.4325 236.559 11.219C236.786 11.0055 236.9 10.7576 236.9 10.4752C236.9 10.186 236.779 9.94835 236.538 9.7624C236.304 9.56956 236.001 9.41804 235.629 9.30785C235.264 9.19077 234.889 9.10468 234.503 9.04959C233.456 8.89807 232.516 8.65014 231.683 8.30579C230.857 7.95455 230.203 7.47245 229.721 6.8595C229.245 6.24656 229.008 5.46832 229.008 4.5248C229.008 3.62259 229.263 2.83402 229.772 2.15909C230.282 1.47727 230.953 0.94697 231.786 0.568182C232.627 0.189394 233.532 0 234.503 0C235.316 0 236.094 0.130854 236.838 0.392563C237.588 0.647384 238.243 1.01928 238.8 1.50826C239.358 1.99724 239.758 2.58264 239.999 3.26446L237.086 4.31818C237.017 4.11846 236.862 3.92906 236.621 3.75C236.387 3.56405 236.087 3.41254 235.722 3.29546C235.357 3.17838 234.951 3.11983 234.503 3.11983C234.104 3.11295 233.722 3.17149 233.357 3.29546C232.992 3.41942 232.692 3.58815 232.458 3.80165C232.224 4.01515 232.107 4.2562 232.107 4.5248C232.107 4.8967 232.217 5.17562 232.437 5.36157C232.658 5.54063 232.947 5.66804 233.305 5.7438C233.67 5.81956 234.069 5.88843 234.503 5.95042C235.495 6.09504 236.407 6.35331 237.241 6.72521C238.074 7.09711 238.742 7.59298 239.245 8.21281C239.747 8.83265 239.999 9.58678 239.999 10.4752C239.999 11.3774 239.744 12.1694 239.234 12.8512C238.732 13.5262 238.064 14.053 237.23 14.4318C236.397 14.8106 235.488 15 234.503 15Z" fill="#BBB3A9"/>
<path d="M168.986 14.7314V0.268555H178.2V3.36773H172.085V5.43384H176.796V8.53302H172.085V11.6322H178.2V14.7314H168.986Z" fill="#BBB3A9"/>
<path d="M155.408 14.7314V0.268555H160.201C161.2 0.268555 162.133 0.457949 163.001 0.836737C163.875 1.20864 164.643 1.72861 165.304 2.39665C165.972 3.05781 166.492 3.82572 166.864 4.70037C167.243 5.56814 167.432 6.50134 167.432 7.49996C167.432 8.49858 167.243 9.43522 166.864 10.3099C166.492 11.1776 165.972 11.9456 165.304 12.6136C164.643 13.2748 163.875 13.7947 163.001 14.1735C162.133 14.5454 161.2 14.7314 160.201 14.7314H155.408ZM158.507 11.6322H160.201C160.759 11.6322 161.286 11.5254 161.782 11.3119C162.277 11.0984 162.718 10.8023 163.104 10.4235C163.489 10.0447 163.789 9.6074 164.003 9.11153C164.223 8.60877 164.333 8.07158 164.333 7.49996C164.333 6.92833 164.223 6.39459 164.003 5.89872C163.789 5.40285 163.489 4.96552 163.104 4.58674C162.725 4.20106 162.288 3.90147 161.792 3.68798C161.296 3.47448 160.766 3.36773 160.201 3.36773H158.507V11.6322Z" fill="#BBB3A9"/>
</svg>
