<svg width="126" height="24" viewBox="0 0 126 24" fill="none" xmlns="http://www.w3.org/2000/svg">
<path d="M58.8695 3.2197C58.8152 2.94676 58.6515 1.63709 58.4883 0.81882C59.0876 1.25519 60.5037 2.23745 61.0486 2.56486C61.2667 1.96451 61.9204 0 61.9204 0C61.9204 0 63.1733 1.96451 63.3364 2.23745C63.5545 2.01898 65.025 0.436924 65.3518 0C65.4062 0.927775 65.515 2.23745 65.5699 2.45536C65.6243 2.29192 66.1692 1.52758 67.0953 0.927225C66.6597 1.74549 66.496 2.72775 66.4416 3.71C65.5155 3.49154 64.6443 3.27363 63.5545 3.27363C61.6479 3.27363 59.8506 3.76503 58.3252 4.69225C58.0527 3.71 57.6171 2.67327 57.0722 1.96396C58.1615 2.45481 58.8152 3.05572 58.8695 3.2197ZM71.616 18.7173L70.7443 17.735C70.5262 20.2999 69.3282 22.3734 66.986 23.9015L66.6048 22.4829C64.6982 23.9015 61.3754 24.7203 58.5976 23.1377C58.9789 21.3372 59.2513 19.4816 58.5976 17.2987C57.0722 19.754 55.6018 20.7363 55.6018 20.7363C54.5669 18.9358 54.6213 15.3886 55.0025 14.3519L53.3139 15.0067C53.3139 13.7515 54.1857 11.2417 55.4381 9.82253L54.3488 9.60407C55.0569 8.13097 56.1461 6.76627 57.6171 5.72954C57.1815 6.38437 57.1815 7.96698 58.4339 8.56734C57.944 7.63956 57.8347 6.60283 58.3796 5.948C58.9789 5.34764 59.7957 5.5661 60.3406 6.00248C60.1225 5.51107 59.6869 4.85679 58.9245 4.85679C60.3406 4.14748 61.9204 3.7111 63.5545 3.7111C63.827 3.7111 64.1538 3.7111 64.535 3.76558C65.025 3.98404 65.788 4.69335 66.0604 5.12973C66.0604 5.12973 66.0604 4.63888 65.8424 3.98404C67.6397 4.42041 68.5114 5.23923 68.8926 5.51217C68.947 6.33044 69.1651 6.82185 69.4919 7.53116C68.8926 6.87632 67.3678 5.78511 66.6592 5.56665C66.6592 5.56665 66.6048 6.22149 66.3867 6.60338C64.9706 5.56665 64.2626 5.29371 64.2626 5.29371C62.7372 5.51217 61.6479 6.16701 61.1579 6.65786L61.6479 7.09423C60.6674 7.36717 60.1225 8.18544 60.1225 8.18544L60.9942 8.34888C60.9942 8.34888 60.9398 9.33113 62.1379 9.87701C63.1728 10.4774 64.7525 9.71358 66.1143 10.3134C65.1338 9.22217 64.5888 8.78525 64.5888 8.78525C64.5888 8.78525 64.2076 8.73077 63.9352 8.73077C63.6627 8.73077 63.1184 8.78525 62.5735 8.56734C62.3554 8.40391 61.9742 8.2944 61.7567 8.13097C61.7567 8.13097 62.4103 7.47613 63.3364 7.25767C63.3364 7.25767 64.2082 7.47613 64.8619 7.96698C65.3518 7.53061 65.788 7.53061 65.788 7.53061C65.788 7.53061 65.298 7.96698 65.5155 8.51286C66.1692 9.11322 66.9316 9.98597 66.9316 9.98597C67.7484 9.54959 69.3282 9.71303 69.6007 10.0404C69.1651 9.44009 68.5658 9.00371 68.1302 8.62182C68.0758 8.40336 67.5309 7.69404 67.4765 7.58509C67.4765 7.58509 67.9665 7.80355 68.457 8.18544C68.6202 7.96698 68.8382 7.80355 69.1107 7.74907C69.4919 8.02201 69.5463 8.45838 69.4919 8.56734C69.2738 8.7858 69.2194 8.7858 69.2194 8.7858L70.0363 9.6591L70.0906 9.05874C71.8879 11.787 72.9234 14.8433 71.616 18.7173ZM68.1296 12.9878V11.5691C68.1296 11.5691 67.5303 11.3507 66.8223 10.8598C65.4606 11.0783 63.9352 12.3329 63.9352 12.3329C63.9352 12.3329 64.5345 13.3697 65.0788 14.4609C66.1681 14.6248 67.6397 13.4241 68.1296 12.9878ZM69.437 15.4431C69.437 15.4431 69.2738 14.8428 68.8377 14.3519H67.8028C67.8028 14.3519 66.3867 15.6071 65.5693 15.6071C65.5693 15.6071 66.0593 16.4804 66.2774 16.9712C66.7674 16.8078 67.5847 16.4798 67.8572 16.0979C67.8572 16.0979 68.0753 16.8073 68.0753 17.5711C68.6202 17.2981 69.2189 16.6433 69.437 15.4431ZM69.8726 10.9682C69.2733 11.4046 68.8921 11.6231 68.8921 11.6231V13.0417C69.2733 13.4781 69.6001 13.751 69.9269 14.4603C70.4718 13.4781 70.3625 12.1689 69.8726 10.9682ZM7.66932 9.47641C7.66932 11.8344 5.92255 13.204 3.6446 13.204H2.27795V16.8557C2.35375 17.0076 0 17.0076 0 17.0076V5.7488H3.64515C5.9989 5.7488 7.66932 7.1179 7.66932 9.47641ZM5.54298 9.47641C5.54298 8.33512 4.7075 7.72651 3.5688 7.72651H2.27795V11.2258H3.5688C4.70805 11.2258 5.54298 10.6177 5.54298 9.47641ZM33.1837 16.8551H35.1579V9.47641H33.1837V16.8551ZM34.323 5.90067C33.6397 5.90067 33.0321 6.35686 33.0321 7.19384C33.0321 7.87839 33.4875 8.487 34.323 8.487C35.0063 8.487 35.538 7.95433 35.6138 7.19384C35.6138 6.50928 35.1585 5.90067 34.323 5.90067ZM29.6149 9.32398C29.0832 9.32398 28.3241 9.47586 27.4886 10.4653L27.4128 10.5412L27.337 10.4653C26.8816 9.62828 26.1219 9.32398 25.2865 9.32398C23.7676 9.32398 23.3881 10.5412 23.3881 10.5412L23.0843 9.55234H21.2617V16.9311H23.2359V12.5949C23.2359 11.7579 23.6155 11.2258 24.451 11.2258C25.2865 11.2258 25.666 11.6819 25.666 12.5189V17.007H27.6402V12.6708C27.6402 11.8338 28.0198 11.3017 28.8553 11.3017C29.6907 11.3017 30.0703 11.7579 30.0703 12.5949C30.0703 12.5949 30.2499 12.5949 30.2983 12.525V16.9311H32.2725V12.1387C32.2725 10.5412 31.2096 9.32398 29.6149 9.32398ZM48.4471 9.55234C47.5358 9.55234 46.8525 10.085 46.5487 10.7696L46.245 9.62828H44.4224V17.007H46.4729V13.3553C46.4729 12.1381 47.2321 11.5295 48.2197 11.5295C48.5235 11.5295 48.7514 11.5295 49.0552 11.6054V9.62773C48.8272 9.55179 48.6751 9.55234 48.4471 9.55234ZM12.9849 9.62828C12.7569 9.55234 12.6053 9.55234 12.3774 9.55234C11.4661 9.55234 10.7828 10.085 10.479 10.7696L10.1752 9.62828H8.35265V17.007L10.3268 16.9311V13.2794C10.3268 12.0622 11.086 11.4536 12.0736 11.4536C12.3774 11.4536 12.6053 11.4536 12.9849 11.6054V9.62828ZM43.6627 13.1275C43.6627 13.3559 43.6627 13.5078 43.5869 13.9645H38.1197C38.3477 14.8015 39.031 15.3336 40.0181 15.3336C40.8536 15.3336 41.4611 15.0293 41.9923 14.4966L43.2832 15.7898C42.4477 16.5503 41.2326 17.083 40.0181 17.083C37.816 17.083 36.0692 15.4855 36.0692 13.2035C36.0692 11.1493 37.588 9.24749 40.0181 9.24749C41.8407 9.24749 43.6627 10.6171 43.6627 13.1275ZM41.4606 12.367C41.3848 11.6825 40.7015 11.0739 39.866 11.0739C39.0305 11.0739 38.2714 11.6065 38.0434 12.367H41.4606ZM20.5784 13.1275C20.5784 13.3559 20.5784 13.5078 20.5026 13.9645H15.0354C15.2634 14.8015 15.9467 15.3336 16.9338 15.3336C17.7693 15.3336 18.3768 15.0293 18.908 14.4966L20.1988 15.7898C19.2876 16.5503 18.2247 17.083 16.9338 17.083C14.7317 17.083 12.9849 15.4855 12.9849 13.2035C12.9849 11.1493 14.5037 9.24749 16.9338 9.24749C18.7564 9.24749 20.5784 10.6171 20.5784 13.1275ZM18.4521 12.367C18.3763 11.6825 17.6166 11.0739 16.8575 11.0739C16.022 11.0739 15.2628 11.6065 15.0349 12.367H18.4521ZM117.508 9.33333H115.519V13.089C115.519 14.315 114.831 15.0051 113.912 15.0051C112.917 15.0051 112.305 14.3921 112.305 13.089V9.33333H110.316V13.3185C110.316 16.0776 112.382 16.9971 113.988 16.9971C115.595 16.9971 117.584 16.0005 117.508 13.3185V9.33333ZM98.6877 9.48686H100.524V16.9212H98.6877L98.4581 15.8481C98.0758 16.4611 97.2343 16.9977 96.1631 16.9977C94.1741 16.9977 92.4911 15.1581 92.4911 13.089C92.4911 11.0199 94.2505 9.33333 96.1631 9.33333C97.3106 9.33333 98.0758 9.71633 98.3818 10.4829L98.6877 9.48686ZM98.6114 13.089C98.6114 11.9395 97.7698 11.0964 96.6224 11.0964C95.4749 11.0964 94.6333 11.9395 94.6333 13.089C94.6333 14.2385 95.4749 15.0816 96.6224 15.0816C97.7698 15.0816 98.6114 14.2385 98.6114 13.089ZM78.8734 5.73174H76.7311V16.8447L83.6929 16.7682V14.6991H78.8734V5.73174ZM91.8028 13.0125C91.8028 13.2425 91.8028 13.3955 91.7264 13.8555H86.2944C86.524 14.6986 87.2123 15.2351 88.2071 15.2351C89.0486 15.2351 89.6605 14.9286 90.1961 14.3921L91.4968 15.6951C90.6553 16.4617 89.4315 16.9982 88.1307 16.9982C85.9121 16.9982 84.1527 15.3886 84.1527 13.0896C84.1527 11.0205 85.6831 9.10441 88.1307 9.10441C89.967 9.10441 91.8028 10.4834 91.8028 13.0125ZM89.6605 12.1695C89.5842 11.48 88.8954 10.8664 88.0538 10.8664C87.2123 10.8664 86.4471 11.4029 86.2175 12.1695H89.6605ZM125.923 13.8555H120.415C120.644 14.6986 121.333 15.2351 122.327 15.2351C123.169 15.2351 123.781 14.9286 124.316 14.3921L125.617 15.6951C124.776 16.4617 123.628 16.9982 122.327 16.9982C120.109 16.9982 118.349 15.3886 118.349 13.0896C118.349 11.0205 119.88 9.10441 122.327 9.10441C124.164 9.10441 125.999 10.484 125.999 13.0131C125.999 13.2431 125.999 13.3955 125.923 13.8555ZM123.858 12.1695C123.781 11.48 123.169 10.8664 122.251 10.8664C121.41 10.8664 120.644 11.4029 120.415 12.1695H123.858ZM107.639 9.33388H109.475V16.3846C109.475 17.7642 109.093 18.7608 108.175 19.5268C107.486 20.0633 106.568 20.4463 105.42 20.4463C103.89 20.4463 102.743 19.9098 101.825 19.0667L103.049 17.4571C103.661 17.9937 104.349 18.4537 105.267 18.4537C106.798 18.4537 107.41 17.6107 107.41 16.5376V16.0011C106.798 16.6906 106.032 16.9206 105.344 16.9206C103.279 16.9206 101.596 15.1581 101.596 13.012C101.596 10.8659 103.355 9.25629 105.344 9.25629C106.109 9.1798 106.874 9.63929 107.333 10.2529L107.639 9.33388ZM107.41 13.089C107.41 11.9395 106.568 11.0964 105.42 11.0964C104.273 11.0964 103.431 11.9395 103.431 13.089C103.431 14.2385 104.273 15.0816 105.42 15.0816C106.568 15.0816 107.41 14.2385 107.41 13.089Z" fill="#37003C"/>
</svg>
